<svg xmlns="http://www.w3.org/2000/svg" xmlns:xlink="http://www.w3.org/1999/xlink" version="1.1" id="Layer_1" x="0px" y="0px" viewBox="0 0 853.3 139.3" style="enable-background:new 0 0 853.3 139.3;" xml:space="preserve">
<style type="text/css">
	.st0{fill:#FFFFFF;}
</style>

<g>
	<g>
		<path class="st0" d="M113.3,72.5C88.8,98,58.1,81.9,58.1,81.9l10.7,6.3c3.1,5.8,6.8,11.7,10,17.5C54.7,96.8,43,82.2,37.7,68.1    H26.6c0,0,3.7-4,9-6.6c-4.5-17.4-0.5-32.4-0.5-32.4l19.3,34c-6.4-5.7-13.5-4.3-18.9-1.6c0.6,2.2,1.3,4.4,2.1,6.6h59.6    c17.5-1.3,31.4-16,31.4-33.9c0-18.8-15.2-34-34-34H13.9C6.2,0.4,0,6.6,0,14.3v110c0,7.7,6.2,13.9,13.9,13.9h87.2    c18.8,0,34-15.2,34-34C135.1,89.8,126.1,77.5,113.3,72.5z"/>
	</g>
	<g>
		<g>
			<path class="st0" d="M522.2,101.7h-3.9c-2.1,0-3.7-1.7-3.7-3.7V55c0-2.1,1.7-3.7,3.7-3.7h3.9c2.1,0,3.7,1.7,3.7,3.7v43     C525.9,100,524.3,101.7,522.2,101.7z"/>
		</g>
		<g>
			<circle class="st0" cx="520.1" cy="38.2" r="6.2"/>
		</g>
		<g>
			<path class="st0" d="M168,93.5v4.6c0,1.8-1.4,3.2-3.2,3.2h-5c-1.8,0-3.2-1.4-3.2-3.2V35.2c0-1.8,1.4-3.2,3.2-3.2h5     c1.8,0,3.2,1.4,3.2,3.2v24.3c3.7-5.2,8.9-9.4,17-9.4c11.9,0,23.3,9.4,23.3,26v0.2c0,16.6-11.4,26-23.3,26     C176.7,102.3,171.5,98.1,168,93.5z M196.6,76.3v-0.2c0-9.7-6.5-16-14.3-16s-14.6,6.5-14.6,16v0.2c0,9.7,6.8,16,14.6,16     C190.2,92.3,196.6,86.2,196.6,76.3z"/>
		</g>
		<g>
			<path class="st0" d="M216.4,76.5v-0.2c0-14.3,11.4-26.2,26.8-26.2s26.7,11.7,26.7,26v0.2c0,14.2-11.4,26.1-26.9,26.1     C227.7,102.4,216.4,90.7,216.4,76.5z M258.3,76.5v-0.2c0-8.8-6.4-16.1-15.4-16.1c-9.2,0-15.1,7.2-15.1,15.9v0.2     c0,8.7,6.4,16.1,15.3,16.1C252.4,92.4,258.3,85.1,258.3,76.5z"/>
		</g>
		<g>
			<path class="st0" d="M278.4,51.2h4.9c1.4,0,2.7,0.9,3.1,2.3l9.4,32l10.4-32.3c0.4-1.3,1.7-2.2,3.1-2.2h5.1c1.4,0,2.6,0.9,3.1,2.2     L328,85.5l9.6-32.1c0.4-1.4,1.7-2.3,3.1-2.3h4.6c2.2,0,3.7,2.1,3.1,4.2l-14.3,44c-0.4,1.3-1.7,2.2-3.1,2.2h-5.6     c-1.4,0-2.6-0.9-3.1-2.2l-10.5-32l-10.6,32c-0.4,1.3-1.7,2.2-3.1,2.2h-5.6c-1.4,0-2.6-0.9-3.1-2.2l-14.2-44     C274.7,53.3,276.2,51.2,278.4,51.2z"/>
		</g>
		<g>
			<path class="st0" d="M353.8,76.4v-1.3c0-13.8,11.2-25.2,25-25c15.6,0.3,23.5,12.7,23.5,26.9c0,0,0,0,0,0.1c0,1.8-1.5,3.2-3.2,3.2     h-29.5c-2.3,0-3.9,2.4-2.9,4.5c2.4,5.3,7.2,8.2,13.1,8.2c4.7,0,8.2-1.5,11.6-4.2c1.2-1,3-0.9,4.2,0.1l2.1,1.9     c1.4,1.2,1.5,3.4,0.1,4.7c-4.5,4.2-10.4,6.9-18.1,6.9C365,102.4,353.8,91.9,353.8,76.4z M390.9,72.7c-0.8-7.4-5.1-13.2-12.7-13.2     c-7,0-12,5.4-13,13.2H390.9z"/>
		</g>
		<g>
			<path class="st0" d="M416.1,51.2h5c1.8,0,3.2,1.4,3.2,3.2v8c2.7-6.4,7.3-11.1,14.1-12.1c1.9-0.3,3.7,1.2,3.7,3.2v8.9h-0.7     c-10.1,0-17.1,6.5-17.1,19.8v15.9c0,1.8-1.4,3.2-3.2,3.2h-5c-1.8,0-3.2-1.4-3.2-3.2V54.4C412.9,52.6,414.4,51.2,416.1,51.2z"/>
		</g>
		<g>
			<path class="st0" d="M462.6,93.5v4.6c0,1.8-1.4,3.2-3.2,3.2h-5c-1.8,0-3.2-1.4-3.2-3.2V35.2c0-1.8,1.4-3.2,3.2-3.2h5     c1.8,0,3.2,1.4,3.2,3.2v24.3c3.7-5.2,8.9-9.4,17-9.4c11.9,0,23.3,9.4,23.3,26v0.2c0,16.6-11.4,26-23.3,26     C471.4,102.3,466.1,98.1,462.6,93.5z M491.3,76.3v-0.2c0-9.7-6.5-16-14.3-16s-14.6,6.5-14.6,16v0.2c0,9.7,6.8,16,14.6,16     C484.8,92.3,491.3,86.2,491.3,76.3z"/>
		</g>
		<g>
			<path class="st0" d="M543.2,51.2h5c1.8,0,3.2,1.4,3.2,3.2v8c2.7-6.4,7.3-11.1,14.1-12.1c1.9-0.3,3.7,1.2,3.7,3.2v8.9h-0.7     c-10.1,0-17.1,6.5-17.1,19.8v15.9c0,1.8-1.4,3.2-3.2,3.2h-5c-1.8,0-3.2-1.4-3.2-3.2V54.4C540,52.6,541.4,51.2,543.2,51.2z"/>
		</g>
		<g>
			<path class="st0" d="M574.2,76.3v-0.2c0-16.6,11.3-26,23.3-26c8.3,0,13.5,4.2,17.1,8.8V35.2c0-1.8,1.4-3.2,3.2-3.2h5     c1.8,0,3.2,1.4,3.2,3.2V98c0,1.8-1.4,3.2-3.2,3.2h-5c-1.8,0-3.2-1.4-3.2-3.2v-5.1c-3.7,5.2-8.9,9.4-17.1,9.4     C585.7,102.3,574.2,92.9,574.2,76.3z M614.8,76.3v-0.2c0-9.7-6.8-16-14.5-16c-7.9,0-14.4,6.1-14.4,16v0.2c0,9.7,6.6,16,14.4,16     C607.9,92.3,614.8,85.9,614.8,76.3z"/>
		</g>
	</g>
	<g>
		<polygon class="st0" points="236.4,138.8 236.4,122 248.6,122 248.6,124.1 238.6,124.1 238.6,129.3 247.6,129.3 247.6,131.4     238.6,131.4 238.6,136.7 248.7,136.7 248.7,138.8   "/>
		<path class="st0" d="M236.9,122.5h11.2v1.1h-10v6.2h9v1.1h-9v6.3h10.1v1.1h-11.3V122.5z"/>
		<polygon class="st0" points="263.8,138.7 253.4,125.6 253.4,138.7 251.3,138.7 251.3,122 253.2,122 263.3,134.7 263.3,122     265.4,122 265.4,138.7   "/>
		<path class="st0" d="M251.9,122.5h1.1l10.8,13.7v-13.7h1.1v15.7H264l-11.1-14v14h-1.1v-15.7H251.9z"/>
		<polygon class="st0" points="269.2,138.8 269.2,122 281.4,122 281.4,124.1 271.4,124.1 271.4,129.3 280.4,129.3 280.4,131.4     271.4,131.4 271.4,136.7 281.5,136.7 281.5,138.8   "/>
		<path class="st0" d="M269.7,122.5h11.2v1.1h-10v6.2h9v1.1h-9v6.3H281v1.1h-11.3V122.5z"/>
		<path class="st0" d="M295.8,138.6l-5-6.5h-4.4v6.5h-2.2V122h7.1c2,0,3.7,0.6,4.8,1.6c0.8,0.8,1.3,2.1,1.3,3.3    c0,2.4-1.6,4.2-4.2,4.8l5.3,6.9H295.8z M290.7,130.3l0.5-0.1c1.9,0,4.1-0.8,4.1-3.1c0-1.8-1.5-2.9-4-2.9h-4.9v6.1H290.7z"/>
		<path class="st0" d="M284.7,122.5h6.6c2,0,3.5,0.6,4.4,1.5c0.7,0.7,1.2,1.8,1.2,2.9l0,0c0,2.6-2,4.1-4.6,4.5l5.2,6.7H296l-5-6.5    h-5.1v6.5h-1.2L284.7,122.5L284.7,122.5z M291.2,130.7c2.6,0,4.6-1.3,4.6-3.6l0,0c0-2.1-1.6-3.4-4.5-3.4h-5.4v7.1h5.3V130.7z"/>
		<path class="st0" d="M308.2,139c-4.9,0-8.4-3.5-8.4-8.6c0-4.3,3.1-8.7,8.3-8.7c2.6,0,4.3,0.6,6,2.2l0.4,0.3l-1.5,1.6l-0.4-0.3    c-1.3-1.2-2.8-1.8-4.8-1.8c-3.4,0-6,2.9-6,6.5c0,4,2.4,6.6,6.2,6.6c1.6,0,3.4-0.6,4.5-1.5v-3.8h-5.1v-2.1h7.4v6.8l-0.2,0.1    C313,138,310.6,139,308.2,139z"/>
		<path class="st0" d="M300.3,130.4L300.3,130.4c0-4.3,3.1-8.2,7.8-8.2c2.6,0,4.2,0.7,5.7,2.1l-0.8,0.9c-1.2-1.1-2.7-1.9-5.1-1.9    c-3.8,0-6.5,3.2-6.5,7l0,0c0,4.1,2.5,7.1,6.7,7.1c2,0,3.9-0.8,5-1.8v-4.5H308V130h6.4v6.1c-1.4,1.3-3.6,2.4-6.2,2.4    C303.2,138.5,300.3,134.9,300.3,130.4z"/>
		<rect x="318.2" y="122" class="st0" width="2.2" height="16.7"/>
		<path class="st0" d="M318.7,122.5h1.2v15.7h-1.2V122.5z"/>
		<path class="st0" d="M337.5,138.7l-2-4.4h-8.7l-2,4.4h-2.3l7.9-16.8h1.7l7.8,16.8H337.5z M334.6,132.3l-3.3-7.4l-3.4,7.4H334.6z"/>
		<path class="st0" d="M330.7,122.4h1.1l7.3,15.8h-1.3l-2-4.4h-9.3l-2,4.4h-1.2L330.7,122.4z M335.4,132.8l-4.1-9.1l-4.2,9.1H335.4z    "/>
		<path class="st0" d="M361.5,137.3c-1.4,1.1-3.2,1.6-5.1,1.6c-4.8,0-8.4-3.7-8.4-8.6c0-4.8,3.7-8.6,8.4-8.6c4.8,0,8.4,3.7,8.4,8.6    c0,2.1-0.7,3.9-1.9,5.5l2.2,1.9l-1.3,1.7L361.5,137.3z M356.3,123.8c-3.5,0-6.2,2.8-6.2,6.5c0,3.8,2.7,6.6,6.2,6.6    c0.1,0,0.3,0,0.4,0c1.1,0,2.2-0.3,3.1-0.9l-3-2.5l1.5-1.7l3,2.7c0.8-1.2,1.3-2.5,1.3-4.1C362.5,126.6,359.8,123.8,356.3,123.8z"/>
		<path class="st0" d="M363.7,138.7l-2.2-2c-1.3,1.1-3.1,1.8-5.1,1.8c-4.8,0-7.9-3.8-7.9-8.1l0,0c0-4.3,3.2-8.1,7.9-8.1    c4.8,0,7.9,3.8,7.9,8.1l0,0c0,2.1-0.7,4-2.1,5.5l2.2,1.9L363.7,138.7z M360.6,136l-3.1-2.6l0.8-0.9l3,2.7c1.1-1.3,1.7-2.9,1.7-4.8    l0,0c0-3.9-2.8-7.1-6.7-7.1c-3.9,0-6.7,3.1-6.7,7l0,0c0,3.9,2.8,7.1,6.7,7.1C358.1,137.5,359.5,136.9,360.6,136z"/>
		<path class="st0" d="M374.6,139c-4.3,0-7-2.8-7-7.3V122h2.2v9.6c0,3.4,1.7,5.3,4.8,5.3c3.1,0,4.7-1.8,4.7-5.2V122h2.2v9.6    C381.5,136.1,378.9,139,374.6,139z"/>
		<path class="st0" d="M368.1,131.7v-9.2h1.2v9.1c0,3.8,2,5.8,5.3,5.8c3.2,0,5.2-1.9,5.2-5.7v-9.2h1.2v9.1c0,4.5-2.6,6.9-6.4,6.9    C370.7,138.5,368.1,136.1,368.1,131.7z"/>
		<polygon class="st0" points="384.9,138.8 384.9,122 397.1,122 397.1,124.1 387.1,124.1 387.1,129.3 396.1,129.3 396.1,131.4     387.1,131.4 387.1,136.7 397.2,136.7 397.2,138.8   "/>
		<path class="st0" d="M385.4,122.5h11.2v1.1h-10v6.2h9v1.1h-9v6.3h10.1v1.1h-11.3L385.4,122.5L385.4,122.5z"/>
		<polygon class="st0" points="420.3,138.7 420.3,126.1 414.9,134.1 414.2,134.1 408.8,126.1 408.8,138.7 406.7,138.7 406.7,122     408.6,122 414.6,130.9 420.6,122 422.5,122 422.5,138.7   "/>
		<path class="st0" d="M407.2,122.5h1.1l6.3,9.3l6.3-9.3h1.1v15.7h-1.2v-13.7l-6.2,9.1h-0.1l-6.2-9.1v13.7h-1.1L407.2,122.5    L407.2,122.5z"/>
		<path class="st0" d="M433.7,138.9c-4.7,0-8.2-3.7-8.2-8.5c0-4.9,3.7-8.7,8.4-8.7c4.8,0,8.4,3.7,8.4,8.6c0,4.8-3.7,8.6-8.4,8.6    L433.7,138.9z M433.9,123.8c-3.5,0-6.2,2.8-6.2,6.5c0,3.8,2.7,6.6,6.2,6.6c3.5,0,6.2-2.8,6.2-6.5    C440.1,126.6,437.4,123.8,433.9,123.8z"/>
		<path class="st0" d="M426,130.4L426,130.4c0-4.4,3.2-8.2,7.9-8.2c4.8,0,7.9,3.8,7.9,8.1l0,0c0,4.3-3.2,8.1-7.9,8.1    C429.1,138.5,426,134.7,426,130.4z M440.6,130.4L440.6,130.4c0-3.9-2.8-7.1-6.7-7.1s-6.7,3.1-6.7,7l0,0c0,3.9,2.8,7.1,6.7,7.1    S440.6,134.3,440.6,130.4z"/>
		<polygon class="st0" points="450.2,138.8 442.7,122 445.1,122 451,135.7 456.9,122 459.2,122 451.8,138.8   "/>
		<path class="st0" d="M443.5,122.5h1.3L451,137l6.2-14.5h1.2l-6.9,15.8h-1L443.5,122.5z"/>
		<rect x="461.4" y="122" class="st0" width="2.2" height="16.7"/>
		<path class="st0" d="M461.9,122.5h1.2v15.7h-1.2V122.5z"/>
		<polygon class="st0" points="481,138.7 481,126.1 475.6,134.1 475,134.1 474.8,133.9 469.5,126.1 469.5,138.7 467.4,138.7     467.4,122 469.3,122 475.3,130.9 481.3,122 483.2,122 483.2,138.7   "/>
		<path class="st0" d="M467.9,122.5h1.1l6.3,9.3l6.3-9.3h1.1v15.7h-1.2v-13.7l-6.2,9.1h-0.1l-6.2-9.1v13.7h-1.1L467.9,122.5    L467.9,122.5z"/>
		<polygon class="st0" points="486.9,138.8 486.9,122 499.1,122 499.1,124.1 489.1,124.1 489.1,129.3 498.1,129.3 498.1,131.4     489.1,131.4 489.1,136.7 499.2,136.7 499.2,138.8   "/>
		<path class="st0" d="M487.4,122.5h11.2v1.1h-10v6.2h9v1.1h-9v6.3h10.1v1.1h-11.3L487.4,122.5L487.4,122.5z"/>
		<polygon class="st0" points="514.3,138.7 503.9,125.6 503.9,138.7 501.8,138.7 501.8,122 503.7,122 513.8,134.7 513.8,122     515.9,122 515.9,138.7   "/>
		<path class="st0" d="M502.4,122.5h1.1l10.8,13.7v-13.7h1.1v15.7h-0.9l-11.1-14v14h-1.1v-15.7H502.4z"/>
		<polygon class="st0" points="523.8,138.7 523.8,124.1 518.4,124.1 518.4,122 531.5,122 531.5,124.1 526,124.1 526,138.7   "/>
		<path class="st0" d="M524.4,123.6h-5.5v-1.1H531v1.1h-5.5v14.6h-1.2v-14.6H524.4z"/>
		<path class="st0" d="M545.4,138.7l-2-4.4h-8.7l-2,4.4h-2.3l7.9-16.8h1.7l7.8,16.8H545.4z M542.4,132.3l-3.3-7.4l-3.4,7.4H542.4z"/>
		<path class="st0" d="M538.6,122.4h1.1l7.3,15.8h-1.3l-2-4.4h-9.3l-2,4.4h-1.2L538.6,122.4z M543.2,132.8l-4.1-9.1l-4.2,9.1H543.2z    "/>
	</g>
</g>
</svg>